<svg xmlns="http://www.w3.org/2000/svg" width="10.31" height="11.71" viewBox="0 0 10.31 11.71"><path d="M5.89,5.51A1.48,1.48,0,0,0,3.75,6a1.38,1.38,0,0,0,1,2A1.3,1.3,0,0,0,6.09,6.22a1.25,1.25,0,0,0-2-.34.5.5,0,0,0,.48.83,1.09,1.09,0,0,1,1,.46V6.46c-.22.2-1,.58-1.09.08S5,6,5.22,6.31,5,7.2,4.55,7a.71.71,0,0,1-.34-.81c.21-.8,1.59-.08,1,.56-.24.26-.73.36-.86,0a.55.55,0,0,1,0-.4c0-.13.62-.72.44-.73l.35.15,0,.11-.14.36c.24-.25.52-.42.75-.69a4,4,0,0,0,.51-.77A4.35,4.35,0,0,0,6.77,3c0-1.05-.55-3.33-2-2.92C3.57.38,2.86,1.87,2.71,3A4,4,0,0,0,3.82,6.4c.46.46,1.12-.22.7-.71A4.59,4.59,0,0,0,1.88,4.12,1.5,1.5,0,0,0,0,5.32a2.05,2.05,0,0,0,.85,2,4.17,4.17,0,0,0,3.18.21.5.5,0,0,0,.12-.91A1,1,0,0,0,2.89,7,20.88,20.88,0,0,0,1.65,8.87C1.12,9.73.8,11.1,2,11.59a2.3,2.3,0,0,0,2.58-1.05A4.07,4.07,0,0,0,5.07,7.1l-1,.26a6.25,6.25,0,0,0,2.16,3.17c.83.65,2.36,1.35,3,.05A4,4,0,0,0,8.71,7,3.07,3.07,0,0,0,5.46,5.73a.5.5,0,0,0-.22.83,3.6,3.6,0,0,0,3.15.66c1-.13,2-.72,1.92-1.83a2.12,2.12,0,0,0-1.75-2,3,3,0,0,0-2.84,1.5c-.36.54.51,1,.86.5a2.09,2.09,0,0,1,1.7-1,1.1,1.1,0,0,1,1,1.12c-.07.65-.91.73-1.42.76A2.36,2.36,0,0,1,6,5.85l-.22.84a2.07,2.07,0,0,1,2.21.92,3.14,3.14,0,0,1,.43,2.44c-.27.84-1.69-.44-2-.75a5.3,5.3,0,0,1-1.3-2.2.5.5,0,0,0-1,.26c.33,1.11,0,3-1.34,3.32-.84.18-.6-.71-.33-1.17A13.19,13.19,0,0,0,3.67,7.45l.12-.91C2.94,6.71.9,7,1,5.56c.05-.64.76-.49,1.19-.33A4.13,4.13,0,0,1,3.82,6.4l.7-.71A3.14,3.14,0,0,1,4,2.09a2.94,2.94,0,0,1,.56-.75,1.16,1.16,0,0,1,.37-.29c.28-.08.41.23.52.43a3,3,0,0,1,.26,2,3.06,3.06,0,0,1-1,1.76c-.25.2-.51.34-.48.7a.69.69,0,0,0,.62.65c.68.06.94-.83.51-1.27a1.15,1.15,0,0,0-1.69.28A1.47,1.47,0,0,0,5,8a1.54,1.54,0,0,0,.57-2.85A1.53,1.53,0,0,0,3.22,6.7,1.56,1.56,0,0,0,6,7.38C7.11,5.87,4.68,4.1,3.72,5.75a1.32,1.32,0,0,0,.4,1.83A1.89,1.89,0,0,0,6.3,7.17a.5.5,0,0,0,0-.71,2,2,0,0,0-2-.71l.49.83c.1-.1.36-.12.4.07s-.34.34-.47.2c-.43-.44.3-.73.66-.47.53.37,1-.49.51-.87Z" transform="translate(0 0)" fill="#231f20"/></svg>